<svg width="100" height="100" fill="none" xmlns="http://www.w3.org/2000/svg"><g clip-path="url(#clip0_1400_245)"><path d="M85.94 69.705c-3.143-2.895-7.197-5-11.671-6.161 2.865-1.438 5.274-3.32 6.989-5.534 2.173-2.809 3.062-5.928 2.568-9.018-.534-3.345-2.706-6.507-6.115-8.903-2.445-1.72-5.34-2.928-8.432-3.58 1.932-1.266 3.448-2.751 4.439-4.396 1.384-2.3 1.712-4.888.945-7.488-1.206-4.085-5.466-7.346-11.143-8.795.765-.689 1.398-1.435 1.877-2.23 1.118-1.855 1.381-3.943.763-6.038-1.2-4.066-6.15-7.1-12.317-7.55-1.224-.088-3.555.31-6.971.927-1.296.234-2.52.456-3.1.518l-8.374.904c-4.594.496-8.645 2.753-10.837 6.04-1.53 2.293-1.992 4.847-1.3 7.19 1.35 4.575 6.935 7.55 13.366 7.55 1.383 0 2.806-.138 4.235-.427l13.594-2.752a25.235 25.235 0 003.479-.96c.425-.03.631-.023.705-.018 6.091.444 11.254 3.282 12.276 6.747.462 1.564.283 2.992-.545 4.367-1.686 2.8-6.088 5.217-11.489 6.31l-17.99 3.642a23.622 23.622 0 01-6.667.397 1.876 1.876 0 00-.228-.019c-1.767-.17-3.465-.55-5.024-1.14-3.216-1.216-5.445-3.22-6.118-5.5a5.644 5.644 0 01-.218-1.918 1.953 1.953 0 10-3.9-.218 9.544 9.544 0 00.372 3.242c1.032 3.499 4.045 6.252 8.084 7.883-2.378 1.34-4.443 2.993-5.992 4.823-2.527 2.986-3.595 6.242-3.087 9.417.642 4.02 3.118 6.901 6.583 8.804-3.615 1.306-7.934 3.328-11.134 6.266l-.044.042c-3.222 3.148-4.925 6.734-4.925 10.37 0 5.544 3.116 10.118 9.01 13.227 4.795 2.53 11.249 3.957 18.173 4.02l27.668.252c.128.002.254.002.382.002 9.225 0 17.802-3.055 23.003-8.208 3.128-3.1 4.782-6.726 4.782-10.487 0-4.111-2.015-8.231-5.673-11.6zM53.681 16.133l-13.596 2.751a17.679 17.679 0 01-3.502.357c-4.954 0-8.82-2.19-9.577-4.756-.358-1.213-.072-2.604.804-3.918 1.557-2.334 4.55-3.95 8.006-4.323l8.374-.904c.717-.077 1.95-.3 3.375-.558 1.841-.332 4.862-.879 5.857-.879.05 0 .097.002.136.005 4.34.317 8.147 2.362 8.854 4.758.31 1.046.19 2-.362 2.919-.87 1.445-2.781 2.754-5.26 3.672l-.046.016c-.947.348-1.976.64-3.063.86zM21.972 56.4c-.668-4.17 3.545-9.043 10.015-11.585.197-.077.722-.238 2.049-.469.7.057 1.41.087 2.129.087 1.796 0 3.646-.18 5.503-.555l17.973-3.638c5.674-1.07 11.588.067 15.823 3.044 2.538 1.785 4.138 4.03 4.504 6.323.404 2.526-.756 4.663-1.8 6.01-2.878 3.72-8.584 6.403-14.89 7.002l-21.716 2.066c-8.667.823-18.494-1.416-19.59-8.285zM84.08 89.017c-4.48 4.44-12.374 7.144-20.6 7.076l-27.667-.254c-6.312-.057-12.132-1.324-16.386-3.568-4.596-2.425-6.927-5.713-6.927-9.772 0-3.22 2.022-5.883 3.728-7.555 4.483-4.103 11.97-6.255 14.613-6.917 2.3.495 4.759.73 7.244.73 1.28 0 2.57-.062 3.846-.183L63.63 66.51c7.52-.616 14.87 1.652 19.664 6.068 2.845 2.62 4.412 5.72 4.412 8.727 0 2.695-1.253 5.362-3.625 7.712z" fill="#000"/><path d="M69.943 88.272l-.037.004a1.953 1.953 0 00.365 3.889l.042-.004a1.953 1.953 0 00-.37-3.889zm13.028-6.322a1.953 1.953 0 00-2.599.934c-.429.907-1.695 2.08-2.724 2.768a14.62 14.62 0 01-2.472 1.32 1.954 1.954 0 001.512 3.602 18.546 18.546 0 003.13-1.675c.497-.332 3.026-2.101 4.086-4.349a1.952 1.952 0 00-.933-2.6zm-61.33-54.295c.373.336.84.5 1.306.5.534 0 1.067-.218 1.452-.647l.017-.018a1.953 1.953 0 00-2.848-2.673 1.954 1.954 0 00.073 2.838zm47.361 30.318c.251 0 .508-.05.755-.153a18.597 18.597 0 003.13-1.675c.497-.332 3.025-2.101 4.086-4.349a1.953 1.953 0 10-3.533-1.667c-.428.908-1.694 2.08-2.724 2.769-.754.503-1.585.948-2.471 1.32a1.953 1.953 0 00.757 3.755z" fill="#16B03A"/></g><defs><clipPath id="clip0_1400_245"><path fill="#fff" d="M0 0h100v100H0z"/></clipPath></defs></svg>