<svg width="100" height="100" fill="none" xmlns="http://www.w3.org/2000/svg"><g clip-path="url(#clip0_1400_230)"><path d="M67.821 65.926H33.908a14.272 14.272 0 00-10.07 4.158L9.746 84.114a1.568 1.568 0 102.215 2.22l13.291-13.292c2.546-2.546 6-3.977 9.6-3.977h31.242c-.326 1.863-1.351 4.71-4.552 4.71H45.845a1.57 1.57 0 100 3.14h15.697c6.209-.001 7.849-6.162 7.849-9.42a1.57 1.57 0 00-1.57-1.57z" fill="#262626"/><path d="M87.768 55.399a1.57 1.57 0 00-2.22 0L72.531 68.416a1.57 1.57 0 102.22 2.22l11.783-11.784a6.691 6.691 0 01-.986 9.105L71.356 82.149a14.286 14.286 0 01-10.101 4.184h-23.47a8.474 8.474 0 00-5.97 2.46l-7.938 7.88a1.567 1.567 0 102.211 2.22l7.142-7.142a7.778 7.778 0 015.5-2.279h23.93c3.807 0 7.456-1.519 10.138-4.22l14.97-15.076c5.846-5.845 2.555-12.221 0-14.777z" fill="#262626"/><path d="M63.112 48.66a6.25 6.25 0 00-3.892 1.355 7.848 7.848 0 00-14.192 0 6.279 6.279 0 101.225 8.562 7.837 7.837 0 0011.74-.003 6.279 6.279 0 105.12-9.912zm-21.976 9.42a3.14 3.14 0 110-6.279 3.14 3.14 0 010 6.279zm10.988 0a4.709 4.709 0 110-9.418 4.709 4.709 0 010 9.418zm10.988 0a3.14 3.14 0 110-6.279 3.14 3.14 0 010 6.279zM51.77 41.64a1.429 1.429 0 102.33-1.655l-2.33 1.654zM53.6 3.462a1.429 1.429 0 00-1.93.597l-5.996 11.373a1.429 1.429 0 002.528 1.333l5.33-10.11 10.11 5.33a1.429 1.429 0 001.332-2.527L53.601 3.463zm.5 36.522c-1.959-2.756-2.64-5.285-2.67-7.765-.032-2.534.61-5.077 1.433-7.898 1.621-5.559 3.914-12.014 1.436-20.018l-2.73.845c2.182 7.045.221 12.646-1.449 18.373-.823 2.824-1.585 5.732-1.547 8.734.038 3.058.902 6.152 3.197 9.383l2.33-1.654zm-14.977 5.134a1.429 1.429 0 002.738-.819l-2.737.819zM16.11 22.63a1.429 1.429 0 00-.502 1.957l6.549 11.064a1.429 1.429 0 002.459-1.455l-5.821-9.835 9.835-5.82a1.429 1.429 0 10-1.455-2.46L16.109 22.63zM41.861 44.3c-3.106-10.392-11.632-18.482-24.67-21.824l-.709 2.767c12.206 3.13 19.862 10.575 22.642 19.875l2.737-.819zm25.375-.272a1.429 1.429 0 01-2.738-.818l2.738.818zM90.25 21.54c.679.402.904 1.278.502 1.957l-6.549 11.065a1.428 1.428 0 11-2.458-1.456l5.82-9.835-9.835-5.82a1.429 1.429 0 011.456-2.46l11.064 6.55zM64.498 43.21c3.106-10.392 11.632-18.481 24.67-21.824l.71 2.767c-12.207 3.13-19.863 10.575-22.642 19.875l-2.738-.818z" fill="#F96603"/></g><defs><clipPath id="clip0_1400_230"><path fill="#fff" d="M0 0h100v100H0z"/></clipPath></defs></svg>