<svg width="100" height="100" fill="none" xmlns="http://www.w3.org/2000/svg"><path d="M73.17 50.448a6.795 6.795 0 00-11.965 0l-9.008 16.73A5.306 5.306 0 0056.869 75h20.637a5.307 5.307 0 004.672-7.822l-9.008-16.73zm4.336 21.427H56.87a2.182 2.182 0 01-1.92-3.215l9.008-16.73a3.67 3.67 0 016.461 0l9.009 16.73a2.181 2.181 0 01-1.92 3.215z" fill="#5193F8"/><path d="M68.75 62.5v-6.25a1.563 1.563 0 00-3.125 0v6.25a1.563 1.563 0 003.125 0zm-1.562 6.25a1.563 1.563 0 100-3.125 1.563 1.563 0 000 3.125z" fill="#5193F8"/><path d="M93.75 41.92a2.857 2.857 0 00-2.857-2.858H81.25V23.438a1.562 1.562 0 00-1.563-1.563H68.75V4.687a1.563 1.563 0 00-1.563-1.562h-12.5a1.562 1.562 0 00-1.562 1.563v29.687H42.187a1.562 1.562 0 00-1.562 1.563v6.25H29.687a1.562 1.562 0 00-1.562 1.562V50H17.187a1.562 1.562 0 00-1.562 1.563v15.123l-5.18 3.626H4.687a1.563 1.563 0 000 3.125h4.688V93.75H4.687a1.563 1.563 0 000 3.125h40.47a4.832 4.832 0 003.559-1.563h46.596a1.563 1.563 0 100-3.125H93.75V41.92zm-53.125 3.392v40.916a27.566 27.566 0 01-9.375-4.884V68.066l.403-.484a4.997 4.997 0 00-.403-6.83v-15.44h9.375zm-12.5 33.113a27.765 27.765 0 01-1.703-2.05l-.993-1.324 2.696-3.235v6.61zm-9.375-25.3h9.375v6.261a5.49 5.49 0 00-3.48.986l-5.895 4.127V53.125zM45.157 93.75H12.5V72.689l13.938-9.757a2.38 2.38 0 011.37-.432 1.879 1.879 0 011.444 3.082L22.237 74a1.562 1.562 0 00-.05 1.938l1.735 2.312a30.414 30.414 0 004.203 4.55v.013h.015a30.642 30.642 0 0017.188 7.509 1.718 1.718 0 01-.171 3.428zm36.093-1.563V78.126h-3.125v14.063H68.75V78.124h-3.125v14.063H56.25V78.124h-3.125v14.063h-3.129c.002-.052.004-.104.004-.156a4.828 4.828 0 00-4.361-4.82 27.223 27.223 0 01-1.889-.258V37.5h9.375v17.188h3.125V6.25h9.375v35.938h3.125V25h9.375v31.25h3.125V42.187h9.375v50H81.25z" fill="#262626"/></svg>